<?xml version="1.0" encoding="UTF-8" standalone="no"?>
<svg
   width="24"
   height="24"
   version="1.1"
   id="svg842"
   xmlns="http://www.w3.org/2000/svg"
   xmlns:svg="http://www.w3.org/2000/svg">
  <defs
     id="defs846" />
  <g
     display="none"
     opacity=".360743"
     id="g834">
    <g
       fill="none"
       stroke="#000001"
       stroke-linejoin="round"
       stroke-width="1.6"
       id="g828">
      <path
         d="m20 18v-12h-5v-3l-7 3.75 7 3.75-1e-4 -2.9999 3.5001-1e-4v9l-1.5-1e-4v1.5001z"
         color="#000001"
         id="path824" />
      <path
         d="m4 6v12h5v3l7-3.75-7-3.75 1e-4 2.9999-3.5001 1e-4v-9l1.5 1e-4v-1.5001z"
         color="#000001"
         id="path826" />
    </g>
    <path
       d="m20 18v-12h-5v-3l-7 3.75 7 3.75-1e-4 -2.9999 3.5001-1e-4v9l-1.5-1e-4v1.5001z"
       fill="#918273"
       id="path830" />
    <path
       d="m4 6v12h5v3l7-3.75-7-3.75 1e-4 2.9999-3.5001 1e-4v-9l1.5 1e-4v-1.5001z"
       color="#000001"
       fill="#918273"
       id="path832" />
  </g>
  <path
     d="m9.23828 6c-0.707601 0-1.23828 0.615582-1.23828 1.2793v9.44141c0 0.663715 0.53068 1.2793 1.23828 1.2793h4.32812v-1.50977h-4.05664v-8.98047h1.49023v-1.50977z"
     color="#000000"
     color-rendering="auto"
     dominant-baseline="auto"
     fill="#918273"
     image-rendering="auto"
     shape-rendering="auto"
     solid-color="#000000"
     stop-color="#000000"
     style="font-feature-settings:normal;font-variant-alternates:normal;font-variant-caps:normal;font-variant-east-asian:normal;font-variant-ligatures:normal;font-variant-numeric:normal;font-variant-position:normal;font-variation-settings:normal;inline-size:0;isolation:auto;mix-blend-mode:normal;shape-margin:0;shape-padding:0;text-decoration-color:#000000;text-decoration-line:none;text-decoration-style:solid;text-indent:0;text-orientation:mixed;text-transform:none;white-space:normal;fill:#000000"
     id="path1250" />
  <path
     d="m13 13.5v7.5l7-3.75z"
     fill="#918273"
     id="path1247"
     style="fill:#000000" />
</svg>
